<svg width="24" height="24" viewBox="0 0 24 24" fill="none" xmlns="http://www.w3.org/2000/svg">
    <path d="M12 8.467a7.062 7.062 0 0 1 3.783 1.085 7.144 7.144 0 0 1 2.632 2.948 7.18 7.18 0 0 1-2.635 2.944 7.098 7.098 0 0 1-7.56 0A7.18 7.18 0 0 1 5.585 12.5a7.145 7.145 0 0 1 2.632-2.948A7.062 7.062 0 0 1 12 8.467zM12 7a8.554 8.554 0 0 0-4.84 1.508A8.663 8.663 0 0 0 4 12.5a8.656 8.656 0 0 0 3.16 3.991A8.547 8.547 0 0 0 12 17.996a8.547 8.547 0 0 0 4.84-1.505A8.656 8.656 0 0 0 20 12.5a8.663 8.663 0 0 0-3.16-3.992A8.553 8.553 0 0 0 12 7zm0 3.667c.36 0 .711.107 1.01.309.3.201.532.487.67.822a1.847 1.847 0 0 1-.394 1.998 1.813 1.813 0 0 1-1.982.398 1.822 1.822 0 0 1-.816-.676 1.845 1.845 0 0 1 .226-2.314A1.81 1.81 0 0 1 12 10.667zM12 9.2c-.647 0-1.28.194-1.818.556a3.294 3.294 0 0 0-1.206 1.481 3.326 3.326 0 0 0 .71 3.597 3.248 3.248 0 0 0 3.567.715 3.279 3.279 0 0 0 1.468-1.216 3.32 3.32 0 0 0-.409-4.164A3.266 3.266 0 0 0 12 9.2z" fill="#000"/>
</svg>
